<?xml version="1.0" standalone="no"?>
<!DOCTYPE svg PUBLIC "-//W3C//DTD SVG 20010904//EN"
 "http://www.w3.org/TR/2001/REC-SVG-20010904/DTD/svg10.dtd">
<svg version="1.0" xmlns="http://www.w3.org/2000/svg"
 width="780.000000pt" height="780.000000pt" viewBox="0 0 780.000000 780.000000"
 preserveAspectRatio="xMidYMid meet">
<metadata>
Created by potrace 1.11, written by Peter Selinger 2001-2013
</metadata>
<g transform="translate(0.000000,780.000000) scale(0.100000,-0.100000)"
fill="#000000" stroke="none">
<path d="M2002 5827 l-1972 -1972 1905 -1905 1905 -1905 691 690 c379 380
1266 1269 1969 1976 l1279 1285 -1902 1902 -1902 1902 -1973 -1973z m3583
-451 c37 -18 102 -77 252 -227 184 -186 202 -209 217 -257 29 -100 -16 -200
-119 -265 -63 -40 -147 -44 -210 -10 -61 33 -430 408 -454 463 -37 82 -21 164
48 242 68 78 171 99 266 54z m-757 -606 c7 -11 28 -120 47 -241 19 -122 35
-223 37 -224 2 -2 115 -29 252 -61 213 -50 250 -61 263 -81 14 -21 14 -26 -1
-48 -10 -14 -26 -25 -39 -25 -12 0 -118 23 -236 50 -118 28 -217 50 -219 50
-3 0 -1 -24 2 -52 7 -51 12 -58 112 -159 57 -58 104 -113 104 -123 0 -19 -34
-56 -52 -56 -7 0 -143 130 -303 290 l-290 290 -933 -933 -932 -932 625 -625
c344 -344 642 -648 661 -677 63 -91 57 -178 -20 -261 -94 -102 -214 -108 -313
-14 -35 32 -40 51 -23 83 16 28 60 24 106 -11 56 -42 110 -41 158 3 42 40 53
76 36 120 -8 20 -262 281 -682 702 -429 431 -668 678 -668 690 0 13 347 367
983 1002 761 762 988 983 1006 983 18 0 64 -39 173 -147 81 -81 148 -144 148
-141 0 3 -9 65 -20 137 -11 72 -26 179 -35 238 -8 60 -18 118 -20 130 -3 15 2
30 15 43 25 25 42 25 58 0z m1840 -413 c325 -325 330 -333 271 -366 -24 -13
-44 -7 -340 106 -173 66 -316 119 -319 116 -2 -2 91 -99 208 -216 137 -138
212 -219 212 -233 0 -26 -18 -44 -45 -44 -22 0 -645 616 -645 638 0 23 41 54
63 48 12 -3 157 -57 322 -120 165 -62 302 -112 305 -109 2 2 -92 100 -209 217
-195 195 -213 216 -207 240 7 30 43 48 66 35 8 -4 152 -145 318 -312z m-1015
31 c19 -26 19 -28 3 -53 -22 -34 -61 -31 -89 7 -19 26 -19 28 -3 53 22 34 61
31 89 -7z m248 -284 c50 -15 70 -31 252 -212 109 -109 211 -217 225 -242 58
-97 25 -221 -76 -295 -79 -57 -152 -65 -232 -24 -44 22 -422 402 -444 446 -23
46 -30 114 -17 156 27 79 109 160 183 177 48 12 49 11 109 -6z m-455 -489 c45
-18 114 -84 114 -108 0 -26 -28 -57 -51 -57 -10 0 -33 13 -51 29 -76 66 -128
69 -187 13 -22 -20 -43 -50 -47 -66 -17 -71 58 -178 136 -191 44 -7 49 -6 177
41 141 52 225 44 301 -29 81 -77 108 -198 64 -282 -43 -84 -132 -145 -209
-145 -71 0 -203 82 -203 126 0 38 58 72 75 43 18 -28 90 -69 123 -69 68 0 142
72 142 137 0 38 -53 119 -91 138 -46 24 -108 18 -205 -20 -181 -71 -310 -30
-388 122 -42 83 -29 174 35 247 78 88 165 111 265 71z m-265 -722 c169 -170
309 -315 312 -324 7 -22 -19 -59 -43 -59 -10 0 -154 52 -320 115 -166 63 -307
115 -313 115 -7 0 84 -96 201 -213 146 -146 212 -219 212 -234 0 -26 -25 -53
-48 -53 -20 0 -642 619 -642 638 0 7 11 24 24 37 l25 24 53 -18 c29 -11 166
-62 303 -114 138 -52 259 -98 270 -103 11 -4 -76 90 -192 208 -143 144 -213
221 -213 235 0 26 25 53 48 53 10 0 155 -138 323 -307z m-506 -503 c204 -204
311 -318 313 -334 3 -26 -21 -56 -45 -56 -9 0 -79 62 -155 137 l-138 137 -82
-82 -82 -82 137 -138 c75 -76 137 -145 137 -153 0 -25 -30 -59 -53 -59 -15 0
-116 94 -329 307 -253 253 -308 312 -308 335 0 25 30 58 54 58 5 0 72 -62 148
-137 l138 -137 80 79 c44 44 80 84 80 90 0 6 -58 69 -130 140 -72 72 -130 138
-130 148 0 29 19 57 38 57 10 0 157 -139 327 -310z m-680 -259 c29 -17 129
-109 241 -223 207 -209 232 -247 221 -327 -10 -80 -70 -162 -147 -201 -48 -24
-126 -26 -178 -4 -52 21 -426 394 -458 456 -43 85 -29 169 40 246 79 87 187
107 281 53z"/>
<path d="M5434 5296 c-71 -31 -104 -119 -70 -184 8 -15 101 -113 208 -219 210
-209 232 -222 296 -189 71 37 105 111 77 168 -20 39 -378 403 -417 424 -33 17
-54 17 -94 0z"/>
<path d="M5772 4001 c-42 -27 -72 -77 -72 -122 0 -50 28 -85 231 -286 137
-135 182 -173 213 -182 49 -13 91 3 129 48 69 82 53 116 -152 324 -91 93 -183
183 -204 199 -49 39 -101 46 -145 19z"/>
<path d="M3794 2016 c-56 -55 -59 -99 -15 -167 46 -68 352 -366 396 -385 52
-21 97 -11 140 31 43 43 53 90 30 136 -20 40 -368 394 -407 415 -15 8 -44 14
-64 14 -30 0 -45 -8 -80 -44z"/>
</g>
</svg>
