<svg width="960" height="540" viewBox="0 0 960 540" fill="none" xmlns="http://www.w3.org/2000/svg">
<path d="M108.297 106.297V475.053" stroke="#595959" stroke-width="2" stroke-miterlimit="10" stroke-linejoin="round"/>
<path fill-rule="evenodd" clip-rule="evenodd" d="M111.6 106.297L108.297 97.2205L104.993 106.297H111.6Z" fill="#595959" stroke="#595959" stroke-width="2" stroke-miterlimit="10"/>
<path d="M109.507 474.511H822.325" stroke="#595959" stroke-width="2" stroke-miterlimit="10" stroke-linejoin="round"/>
<path fill-rule="evenodd" clip-rule="evenodd" d="M822.325 477.814L831.402 474.511L822.325 471.207V477.814Z" fill="#595959" stroke="#595959" stroke-width="2" stroke-miterlimit="10"/>
<path d="M128.438 387.77C166.841 365.847 285.094 283.796 358.853 256.23C432.612 228.663 519.059 209.755 570.995 222.374C622.931 234.993 637.143 311.652 670.47 331.943C703.797 352.235 743.383 342.264 770.958 344.125C798.533 345.985 825.094 343.278 835.921 343.109" stroke="#0EB593" stroke-width="3" stroke-miterlimit="10" stroke-linejoin="round"/>
<path d="M74.8998 71.2654C73.2539 71.2654 71.8946 70.7445 70.8217 69.7029C69.7592 68.6508 69.2279 67.3331 69.2279 65.7497C69.2279 64.7081 69.4727 63.7601 69.9623 62.906C70.4623 62.0518 71.1498 61.3956 72.0248 60.9372C72.8998 60.4685 73.8581 60.2341 74.8998 60.2341C76.8685 60.2341 78.3581 61.1039 79.3685 62.8435L77.4154 63.7966C77.1967 63.3591 76.8633 62.9945 76.4154 62.7029C75.9675 62.4008 75.4623 62.2497 74.8998 62.2497C73.931 62.2497 73.1289 62.5831 72.4935 63.2497C71.8685 63.9164 71.556 64.7497 71.556 65.7497C71.556 66.781 71.8737 67.6247 72.5092 68.281C73.155 68.9268 73.9519 69.2497 74.8998 69.2497C75.4623 69.2497 75.9675 69.1039 76.4154 68.8122C76.8633 68.5206 77.1967 68.1508 77.4154 67.7029L79.3685 68.6404C78.3581 70.3904 76.8685 71.2654 74.8998 71.2654ZM85.3137 71.0779V70.281C84.7512 70.9372 83.9387 71.2654 82.8762 71.2654C82.1262 71.2654 81.4908 71.031 80.9699 70.5622C80.4491 70.0831 80.1887 69.4633 80.1887 68.7029C80.1887 67.9529 80.4335 67.3539 80.923 66.906C81.423 66.4476 82.0741 66.2185 82.8762 66.2185C83.9803 66.2185 84.7928 66.531 85.3137 67.156V66.1247C85.3137 65.7289 85.1574 65.4164 84.8449 65.1872C84.5428 64.9476 84.1366 64.8279 83.6262 64.8279C82.772 64.8279 82.022 65.1299 81.3762 65.7341L80.5949 64.3747C81.5428 63.5622 82.6678 63.156 83.9699 63.156C85.0637 63.156 85.9022 63.4112 86.4855 63.9216C87.0689 64.4216 87.3605 65.1456 87.3605 66.0935V71.0779H85.3137ZM83.6887 69.8904C84.4387 69.8904 84.9803 69.6664 85.3137 69.2185V68.2654C84.9803 67.8174 84.4387 67.5935 83.6887 67.5935C83.2824 67.5935 82.9387 67.6976 82.6574 67.906C82.3762 68.1039 82.2355 68.3904 82.2355 68.7654C82.2355 69.1195 82.3762 69.3956 82.6574 69.5935C82.9387 69.7914 83.2824 69.8904 83.6887 69.8904ZM93.7829 71.2654C92.7934 71.2654 92.0017 70.8747 91.4079 70.0935V74.0154H89.3767V63.3435H91.4079V64.3279C92.0225 63.5466 92.8142 63.156 93.7829 63.156C94.8038 63.156 95.6267 63.5154 96.2517 64.2341C96.8871 64.9529 97.2048 65.9424 97.2048 67.2029C97.2048 68.4424 96.8923 69.432 96.2673 70.1716C95.6423 70.9008 94.8142 71.2654 93.7829 71.2654V71.2654ZM93.1423 69.4685C93.7257 69.4685 94.1944 69.2601 94.5486 68.8435C94.9132 68.4268 95.0954 67.8799 95.0954 67.2029C95.0954 66.5362 94.9132 65.9997 94.5486 65.5935C94.1944 65.1768 93.7257 64.9685 93.1423 64.9685C92.809 64.9685 92.4757 65.057 92.1423 65.2341C91.8194 65.4008 91.5746 65.6039 91.4079 65.8435V68.5779C91.5746 68.8279 91.8194 69.0414 92.1423 69.2185C92.4757 69.3851 92.809 69.4685 93.1423 69.4685ZM103.33 71.0779V70.281C102.767 70.9372 101.955 71.2654 100.892 71.2654C100.142 71.2654 99.5068 71.031 98.986 70.5622C98.4651 70.0831 98.2047 69.4633 98.2047 68.7029C98.2047 67.9529 98.4495 67.3539 98.9391 66.906C99.4391 66.4476 100.09 66.2185 100.892 66.2185C101.996 66.2185 102.809 66.531 103.33 67.156V66.1247C103.33 65.7289 103.173 65.4164 102.861 65.1872C102.559 64.9476 102.153 64.8279 101.642 64.8279C100.788 64.8279 100.038 65.1299 99.3922 65.7341L98.611 64.3747C99.5589 63.5622 100.684 63.156 101.986 63.156C103.08 63.156 103.918 63.4112 104.502 63.9216C105.085 64.4216 105.377 65.1456 105.377 66.0935V71.0779H103.33ZM101.705 69.8904C102.455 69.8904 102.996 69.6664 103.33 69.2185V68.2654C102.996 67.8174 102.455 67.5935 101.705 67.5935C101.298 67.5935 100.955 67.6976 100.673 67.906C100.392 68.1039 100.252 68.3904 100.252 68.7654C100.252 69.1195 100.392 69.3956 100.673 69.5935C100.955 69.7914 101.298 69.8904 101.705 69.8904ZM109.424 68.5935C109.591 68.8435 109.835 69.0518 110.158 69.2185C110.492 69.3851 110.825 69.4685 111.158 69.4685C111.763 69.4685 112.242 69.2654 112.596 68.8591C112.95 68.4424 113.127 67.8956 113.127 67.2185C113.127 66.5518 112.95 66.0101 112.596 65.5935C112.242 65.1768 111.763 64.9685 111.158 64.9685C110.825 64.9685 110.492 65.057 110.158 65.2341C109.835 65.4008 109.591 65.6091 109.424 65.8591V68.5935ZM107.393 71.0779V60.406H109.424V64.3435C110.039 63.5518 110.83 63.156 111.799 63.156C112.82 63.156 113.643 63.531 114.268 64.281C114.903 65.0206 115.221 65.9997 115.221 67.2185C115.221 68.4476 114.903 69.432 114.268 70.1716C113.643 70.9008 112.82 71.2654 111.799 71.2654C110.851 71.2654 110.059 70.8747 109.424 70.0935V71.0779H107.393V71.0779ZM117.769 62.5154C117.435 62.5154 117.149 62.4008 116.909 62.1716C116.67 61.932 116.55 61.6404 116.55 61.2966C116.55 60.9633 116.67 60.682 116.909 60.4529C117.149 60.2237 117.435 60.1091 117.769 60.1091C118.113 60.1091 118.399 60.2237 118.628 60.4529C118.868 60.682 118.988 60.9633 118.988 61.2966C118.988 61.6404 118.868 61.932 118.628 62.1716C118.399 62.4008 118.113 62.5154 117.769 62.5154ZM116.769 71.0779V63.3435H118.8V71.0779H116.769ZM120.817 71.0779V60.406H122.848V71.0779H120.817ZM125.865 62.5154C125.531 62.5154 125.245 62.4008 125.005 62.1716C124.766 61.932 124.646 61.6404 124.646 61.2966C124.646 60.9633 124.766 60.682 125.005 60.4529C125.245 60.2237 125.531 60.1091 125.865 60.1091C126.209 60.1091 126.495 60.2237 126.724 60.4529C126.964 60.682 127.084 60.9633 127.084 61.2966C127.084 61.6404 126.964 61.932 126.724 62.1716C126.495 62.4008 126.209 62.5154 125.865 62.5154ZM124.865 71.0779V63.3435H126.896V71.0779H124.865ZM131.491 71.2654C130.033 71.2654 129.303 70.5622 129.303 69.156V65.1247H128.022V63.3435H129.303V61.2341H131.35V63.3435H132.928V65.1247H131.35V68.6091C131.35 68.8591 131.413 69.0674 131.538 69.2341C131.663 69.3904 131.835 69.4685 132.053 69.4685C132.376 69.4685 132.611 69.3904 132.757 69.2341L133.194 70.781C132.84 71.1039 132.272 71.2654 131.491 71.2654ZM134.352 72.281C134.519 72.3643 134.732 72.406 134.993 72.406C135.534 72.406 135.888 72.2185 136.055 71.8435L136.352 71.1872L133.211 63.3435H135.383L137.399 68.7185L139.415 63.3435H141.602L137.977 72.3435C137.685 73.0726 137.29 73.5622 136.79 73.8122C136.29 74.0726 135.711 74.2081 135.055 74.2185C134.68 74.2185 134.342 74.182 134.04 74.1091L134.352 72.281Z" fill="black"/>
<path d="M857.254 480.099V471.427H854.145V469.427H862.645V471.427H859.551V480.099H857.254ZM865.066 471.536C864.733 471.536 864.447 471.422 864.207 471.193C863.967 470.953 863.848 470.661 863.848 470.318C863.848 469.984 863.967 469.703 864.207 469.474C864.447 469.245 864.733 469.13 865.066 469.13C865.41 469.13 865.697 469.245 865.926 469.474C866.165 469.703 866.285 469.984 866.285 470.318C866.285 470.661 866.165 470.953 865.926 471.193C865.697 471.422 865.41 471.536 865.066 471.536ZM864.066 480.099V472.364H866.098V480.099H864.066ZM877.693 480.099V475.224C877.693 474.401 877.307 473.989 876.536 473.989C876.172 473.989 875.849 474.088 875.568 474.286C875.297 474.474 875.088 474.672 874.943 474.88V480.099H872.896V475.224C872.896 474.401 872.51 473.989 871.739 473.989C871.385 473.989 871.068 474.088 870.786 474.286C870.505 474.484 870.291 474.687 870.146 474.896V480.099H868.114V472.364H870.146V473.38C870.323 473.088 870.656 472.818 871.146 472.568C871.646 472.307 872.151 472.177 872.661 472.177C873.786 472.177 874.505 472.646 874.818 473.583C875.057 473.187 875.422 472.854 875.911 472.583C876.401 472.312 876.922 472.177 877.474 472.177C878.984 472.177 879.739 472.958 879.739 474.521V480.099H877.693ZM885.371 480.286C884.153 480.286 883.158 479.911 882.387 479.161C881.627 478.411 881.246 477.432 881.246 476.224C881.246 475.078 881.627 474.12 882.387 473.349C883.148 472.568 884.101 472.177 885.246 472.177C886.382 472.177 887.309 472.573 888.028 473.364C888.757 474.146 889.121 475.172 889.121 476.443V476.88H883.371C883.434 477.37 883.653 477.792 884.028 478.146C884.413 478.5 884.934 478.677 885.59 478.677C885.913 478.677 886.273 478.609 886.668 478.474C887.064 478.338 887.392 478.151 887.653 477.911L888.559 479.224C888.174 479.568 887.694 479.833 887.121 480.021C886.559 480.198 885.976 480.286 885.371 480.286ZM887.153 475.505C887.121 474.995 886.929 474.583 886.575 474.271C886.22 473.958 885.778 473.802 885.246 473.802C884.715 473.802 884.278 473.963 883.934 474.286C883.59 474.609 883.392 475.016 883.34 475.505H887.153Z" fill="black"/>
<path d="M128.32 145.419H619.675" stroke="#2A2242" stroke-miterlimit="10" stroke-linejoin="round"/>
<path fill-rule="evenodd" clip-rule="evenodd" d="M619.675 147.07L624.213 145.419L619.675 143.767V147.07Z" fill="#2A2242" stroke="#2A2242" stroke-miterlimit="10"/>
<path d="M127.757 133.118V122.446H132.038C133.059 122.446 133.871 122.753 134.475 123.368C135.079 123.972 135.382 124.737 135.382 125.665C135.382 126.602 135.074 127.373 134.46 127.977C133.845 128.581 133.038 128.883 132.038 128.883H129.085V133.118H127.757V133.118ZM131.882 127.696C132.527 127.696 133.043 127.508 133.428 127.133C133.814 126.758 134.007 126.269 134.007 125.665C134.007 125.05 133.814 124.56 133.428 124.196C133.043 123.821 132.527 123.633 131.882 123.633H129.085V127.696H131.882ZM137.102 133.118V125.383H138.305V126.633C139.013 125.696 139.867 125.227 140.867 125.227V126.461L140.399 126.415C140.034 126.415 139.633 126.545 139.195 126.805C138.758 127.066 138.461 127.347 138.305 127.649V133.118H137.102ZM145.757 133.305C144.632 133.305 143.71 132.925 142.991 132.165C142.283 131.404 141.929 130.43 141.929 129.243C141.929 128.055 142.283 127.086 142.991 126.336C143.71 125.576 144.632 125.196 145.757 125.196C146.871 125.196 147.788 125.576 148.507 126.336C149.225 127.086 149.585 128.055 149.585 129.243C149.585 130.43 149.225 131.404 148.507 132.165C147.788 132.925 146.871 133.305 145.757 133.305ZM145.757 132.243C146.507 132.243 147.121 131.961 147.6 131.399C148.08 130.836 148.319 130.118 148.319 129.243C148.319 128.378 148.08 127.67 147.6 127.118C147.121 126.555 146.507 126.274 145.757 126.274C145.007 126.274 144.387 126.55 143.897 127.102C143.418 127.654 143.179 128.368 143.179 129.243C143.179 130.128 143.418 130.852 143.897 131.415C144.376 131.967 144.996 132.243 145.757 132.243ZM152.127 124.29C151.909 124.29 151.716 124.211 151.549 124.055C151.393 123.899 151.315 123.711 151.315 123.493C151.315 123.264 151.393 123.071 151.549 122.915C151.716 122.748 151.909 122.665 152.127 122.665C152.346 122.665 152.534 122.748 152.69 122.915C152.857 123.071 152.94 123.264 152.94 123.493C152.94 123.711 152.857 123.899 152.69 124.055C152.534 124.211 152.346 124.29 152.127 124.29ZM150.44 136.258C150.044 136.258 149.726 136.206 149.487 136.102C149.237 136.008 148.992 135.868 148.752 135.68L149.174 134.758C149.508 135.092 149.877 135.258 150.284 135.258C151.117 135.258 151.534 134.795 151.534 133.868V125.383H152.737V133.868C152.737 134.639 152.539 135.227 152.143 135.633C151.747 136.05 151.18 136.258 150.44 136.258ZM158.618 133.305C157.451 133.305 156.504 132.93 155.774 132.18C155.045 131.42 154.681 130.441 154.681 129.243C154.681 128.107 155.04 127.149 155.759 126.368C156.488 125.586 157.399 125.196 158.493 125.196C159.597 125.196 160.488 125.581 161.165 126.352C161.852 127.123 162.196 128.118 162.196 129.336V129.649H155.946C155.988 130.441 156.269 131.086 156.79 131.586C157.321 132.076 157.967 132.321 158.727 132.321C159.665 132.321 160.462 131.993 161.118 131.336L161.696 132.133C160.905 132.915 159.879 133.305 158.618 133.305ZM161.024 128.758C161.024 128.05 160.79 127.446 160.321 126.946C159.852 126.446 159.238 126.196 158.477 126.196C157.759 126.196 157.16 126.446 156.681 126.946C156.212 127.446 155.967 128.05 155.946 128.758H161.024ZM167.548 133.305C166.413 133.305 165.485 132.925 164.767 132.165C164.048 131.394 163.689 130.42 163.689 129.243C163.689 128.086 164.048 127.123 164.767 126.352C165.485 125.581 166.413 125.196 167.548 125.196C168.746 125.196 169.689 125.644 170.376 126.54L169.579 127.274C169.09 126.607 168.433 126.274 167.61 126.274C166.819 126.274 166.173 126.55 165.673 127.102C165.183 127.644 164.939 128.357 164.939 129.243C164.939 130.139 165.183 130.862 165.673 131.415C166.163 131.967 166.808 132.243 167.61 132.243C168.423 132.243 169.079 131.904 169.579 131.227L170.376 131.961C169.689 132.857 168.746 133.305 167.548 133.305ZM174.015 133.305C172.869 133.305 172.296 132.706 172.296 131.508V126.446H171.015V125.383H172.296V123.274H173.499V125.383H175.062V126.446H173.499V131.243C173.499 131.534 173.562 131.774 173.687 131.961C173.822 132.149 174.02 132.243 174.28 132.243C174.614 132.243 174.885 132.133 175.093 131.915L175.452 132.821C175.119 133.144 174.64 133.305 174.015 133.305ZM180.894 133.118V122.446H182.097V133.118H180.894ZM185.088 124.29C184.869 124.29 184.676 124.211 184.509 124.055C184.353 123.899 184.275 123.711 184.275 123.493C184.275 123.264 184.353 123.071 184.509 122.915C184.676 122.748 184.869 122.665 185.088 122.665C185.306 122.665 185.494 122.748 185.65 122.915C185.817 123.071 185.9 123.264 185.9 123.493C185.9 123.711 185.817 123.899 185.65 124.055C185.494 124.211 185.306 124.29 185.088 124.29ZM184.494 133.118V125.383H185.697V133.118H184.494ZM188.422 133.118V126.446H187.141V125.383H188.422V124.805C188.422 124.003 188.62 123.383 189.016 122.946C189.422 122.508 189.974 122.29 190.672 122.29C191.318 122.29 191.859 122.487 192.297 122.883L191.797 123.665C191.526 123.404 191.208 123.274 190.844 123.274C190.031 123.274 189.625 123.784 189.625 124.805V125.383H191.188V126.446H189.625V133.118H188.422ZM196.106 133.305C194.939 133.305 193.992 132.93 193.262 132.18C192.533 131.42 192.169 130.441 192.169 129.243C192.169 128.107 192.528 127.149 193.247 126.368C193.976 125.586 194.887 125.196 195.981 125.196C197.085 125.196 197.976 125.581 198.653 126.352C199.341 127.123 199.684 128.118 199.684 129.336V129.649H193.434C193.476 130.441 193.757 131.086 194.278 131.586C194.809 132.076 195.455 132.321 196.216 132.321C197.153 132.321 197.95 131.993 198.606 131.336L199.184 132.133C198.393 132.915 197.367 133.305 196.106 133.305ZM198.512 128.758C198.512 128.05 198.278 127.446 197.809 126.946C197.341 126.446 196.726 126.196 195.966 126.196C195.247 126.196 194.648 126.446 194.169 126.946C193.7 127.446 193.455 128.05 193.434 128.758H198.512ZM205.036 133.305C203.901 133.305 202.974 132.925 202.255 132.165C201.536 131.394 201.177 130.42 201.177 129.243C201.177 128.086 201.536 127.123 202.255 126.352C202.974 125.581 203.901 125.196 205.036 125.196C206.234 125.196 207.177 125.644 207.864 126.54L207.067 127.274C206.578 126.607 205.921 126.274 205.099 126.274C204.307 126.274 203.661 126.55 203.161 127.102C202.671 127.644 202.427 128.357 202.427 129.243C202.427 130.139 202.671 130.862 203.161 131.415C203.651 131.967 204.296 132.243 205.099 132.243C205.911 132.243 206.567 131.904 207.067 131.227L207.864 131.961C207.177 132.857 206.234 133.305 205.036 133.305ZM209.3 135.055C209.477 135.139 209.696 135.18 209.956 135.18C210.227 135.18 210.451 135.123 210.628 135.008C210.815 134.904 210.977 134.691 211.112 134.368L211.628 133.196L208.394 125.383H209.69L212.269 131.727L214.831 125.383H216.144L212.269 134.68C211.841 135.711 211.081 136.237 209.987 136.258C209.685 136.258 209.394 136.222 209.112 136.149L209.3 135.055V135.055ZM220.796 133.305C219.661 133.305 218.734 132.925 218.015 132.165C217.296 131.394 216.937 130.42 216.937 129.243C216.937 128.086 217.296 127.123 218.015 126.352C218.734 125.581 219.661 125.196 220.796 125.196C221.994 125.196 222.937 125.644 223.624 126.54L222.827 127.274C222.338 126.607 221.681 126.274 220.859 126.274C220.067 126.274 219.421 126.55 218.921 127.102C218.431 127.644 218.187 128.357 218.187 129.243C218.187 130.139 218.431 130.862 218.921 131.415C219.411 131.967 220.056 132.243 220.859 132.243C221.671 132.243 222.327 131.904 222.827 131.227L223.624 131.961C222.937 132.857 221.994 133.305 220.796 133.305ZM225.31 133.118V122.446H226.513V133.118H225.31ZM232.394 133.305C231.228 133.305 230.28 132.93 229.55 132.18C228.821 131.42 228.457 130.441 228.457 129.243C228.457 128.107 228.816 127.149 229.535 126.368C230.264 125.586 231.175 125.196 232.269 125.196C233.373 125.196 234.264 125.581 234.941 126.352C235.629 127.123 235.972 128.118 235.972 129.336V129.649H229.722C229.764 130.441 230.045 131.086 230.566 131.586C231.097 132.076 231.743 132.321 232.504 132.321C233.441 132.321 234.238 131.993 234.894 131.336L235.472 132.133C234.681 132.915 233.655 133.305 232.394 133.305ZM234.8 128.758C234.8 128.05 234.566 127.446 234.097 126.946C233.629 126.446 233.014 126.196 232.254 126.196C231.535 126.196 230.936 126.446 230.457 126.946C229.988 127.446 229.743 128.05 229.722 128.758H234.8Z" fill="black"/>
<path d="M129.454 163.261V368.584" stroke="#595959" stroke-miterlimit="10" stroke-linejoin="round"/>
<path fill-rule="evenodd" clip-rule="evenodd" d="M131.106 163.261L129.454 158.723L127.802 163.261H131.106Z" fill="#595959" stroke="#595959" stroke-miterlimit="10"/>
<path fill-rule="evenodd" clip-rule="evenodd" d="M127.802 368.584L129.454 373.122L131.106 368.584H127.802Z" fill="#595959" stroke="#595959" stroke-miterlimit="10"/>
<path d="M518.218 163.261V204.049" stroke="#595959" stroke-miterlimit="10" stroke-linejoin="round"/>
<path fill-rule="evenodd" clip-rule="evenodd" d="M519.87 163.261L518.218 158.723L516.566 163.261H519.87Z" fill="#595959" stroke="#595959" stroke-miterlimit="10"/>
<path fill-rule="evenodd" clip-rule="evenodd" d="M516.566 204.049L518.218 208.587L519.87 204.049H516.566Z" fill="#595959" stroke="#595959" stroke-miterlimit="10"/>
<path d="M678.598 163.261V320.647" stroke="#595959" stroke-miterlimit="10" stroke-linejoin="round"/>
<path fill-rule="evenodd" clip-rule="evenodd" d="M680.25 163.261L678.598 158.723L676.947 163.261H680.25Z" fill="#595959" stroke="#595959" stroke-miterlimit="10"/>
<path fill-rule="evenodd" clip-rule="evenodd" d="M676.947 320.647L678.598 325.185L680.25 320.647H676.947Z" fill="#595959" stroke="#595959" stroke-miterlimit="10"/>
<path d="M608.551 225.366H831.858" stroke="#0EB593" stroke-width="2" stroke-miterlimit="10" stroke-linejoin="round" stroke-dasharray="2 6"/>
<path d="M831.858 255.048V314.639" stroke="#E53094" stroke-width="2" stroke-miterlimit="10" stroke-linejoin="round"/>
<path fill-rule="evenodd" clip-rule="evenodd" d="M835.162 255.048L831.858 245.972L828.555 255.048H835.162Z" fill="#E53094" stroke="#E53094" stroke-width="2" stroke-miterlimit="10"/>
<path fill-rule="evenodd" clip-rule="evenodd" d="M828.555 314.639L831.858 323.715L835.162 314.639H828.555Z" fill="#E53094" stroke="#E53094" stroke-width="2" stroke-miterlimit="10"/>
<path d="M831.858 356.883V384.915" stroke="#0EB593" stroke-miterlimit="10" stroke-linejoin="round"/>
<path fill-rule="evenodd" clip-rule="evenodd" d="M833.51 356.883L831.858 352.345L830.207 356.883H833.51Z" fill="#0EB593" stroke="#0EB593" stroke-miterlimit="10"/>
<path fill-rule="evenodd" clip-rule="evenodd" d="M830.207 384.915L831.858 389.453L833.51 384.915H830.207Z" fill="#0EB593" stroke="#0EB593" stroke-miterlimit="10"/>
<path d="M129.454 395.867H832.32" stroke="#0EB593" stroke-width="2" stroke-miterlimit="10" stroke-linejoin="round" stroke-dasharray="2 6"/>
<path d="M862.25 294.103V292.868C861.448 293.848 860.453 294.337 859.266 294.337C857.984 294.337 856.948 293.879 856.156 292.962C855.375 292.046 854.984 290.822 854.984 289.29C854.984 287.77 855.375 286.54 856.156 285.603C856.948 284.665 857.984 284.197 859.266 284.197C860.474 284.197 861.469 284.691 862.25 285.681V280.759H864.797V294.103H862.25ZM860.047 292.087C860.474 292.087 860.891 291.983 861.297 291.775C861.714 291.566 862.031 291.301 862.25 290.978V287.556C862.031 287.243 861.714 286.983 861.297 286.775C860.891 286.566 860.474 286.462 860.047 286.462C859.328 286.462 858.74 286.723 858.281 287.243C857.833 287.764 857.609 288.447 857.609 289.29C857.609 290.103 857.828 290.775 858.266 291.306C858.703 291.827 859.297 292.087 860.047 292.087ZM871.861 294.337C870.34 294.337 869.1 293.868 868.142 292.931C867.184 291.993 866.704 290.77 866.704 289.259C866.704 287.822 867.178 286.618 868.126 285.65C869.085 284.681 870.277 284.197 871.704 284.197C873.132 284.197 874.293 284.691 875.189 285.681C876.095 286.66 876.548 287.941 876.548 289.525V290.087H869.361C869.444 290.702 869.72 291.228 870.189 291.665C870.668 292.103 871.319 292.322 872.142 292.322C872.548 292.322 872.996 292.238 873.486 292.072C873.975 291.905 874.387 291.671 874.72 291.368L875.845 293.009C875.366 293.447 874.772 293.78 874.064 294.009C873.356 294.228 872.621 294.337 871.861 294.337ZM874.079 288.368C874.038 287.723 873.798 287.207 873.361 286.822C872.923 286.426 872.371 286.228 871.704 286.228C871.038 286.228 870.491 286.431 870.064 286.837C869.637 287.243 869.392 287.754 869.329 288.368H874.079ZM880.921 291.009C881.139 291.311 881.452 291.566 881.858 291.775C882.275 291.983 882.691 292.087 883.108 292.087C883.848 292.087 884.441 291.832 884.889 291.322C885.337 290.801 885.561 290.124 885.561 289.29C885.561 288.447 885.337 287.764 884.889 287.243C884.441 286.723 883.848 286.462 883.108 286.462C882.691 286.462 882.275 286.572 881.858 286.79C881.452 286.999 881.139 287.264 880.921 287.587V291.009ZM878.389 294.103V280.759H880.921V285.681C881.691 284.691 882.686 284.197 883.905 284.197C885.186 284.197 886.218 284.665 886.999 285.603C887.79 286.54 888.186 287.77 888.186 289.29C888.186 290.822 887.79 292.046 886.999 292.962C886.218 293.879 885.186 294.337 883.905 294.337C882.718 294.337 881.723 293.848 880.921 292.868V294.103H878.389ZM893.344 294.337C891.521 294.337 890.609 293.457 890.609 291.697V286.665H889V284.447H890.609V281.806H893.156V284.447H895.125V286.665H893.156V291.025C893.156 291.327 893.234 291.582 893.391 291.79C893.547 291.988 893.766 292.087 894.047 292.087C894.443 292.087 894.734 291.993 894.922 291.806L895.469 293.728C895.021 294.134 894.313 294.337 893.344 294.337Z" fill="#E53094"/>
<path d="M856.75 374.395C856.958 374.739 857.271 375.03 857.688 375.27C858.115 375.499 858.568 375.614 859.047 375.614C859.807 375.614 860.412 375.338 860.859 374.786C861.318 374.233 861.547 373.515 861.547 372.629C861.547 371.733 861.323 371.015 860.875 370.473C860.427 369.921 859.818 369.645 859.047 369.645C858.568 369.645 858.115 369.77 857.688 370.02C857.271 370.259 856.958 370.551 856.75 370.895V374.395ZM855.547 376.489V365.817H856.75V369.926C857.406 369.02 858.276 368.567 859.359 368.567C860.38 368.567 861.208 368.942 861.844 369.692C862.479 370.431 862.797 371.411 862.797 372.629C862.797 373.869 862.479 374.853 861.844 375.582C861.208 376.312 860.38 376.676 859.359 376.676C858.807 376.676 858.302 376.551 857.844 376.301C857.396 376.051 857.031 375.728 856.75 375.332V376.489H855.547ZM869.966 376.489V375.395C869.664 375.739 869.273 376.041 868.794 376.301C868.315 376.551 867.783 376.676 867.2 376.676C865.565 376.676 864.747 375.858 864.747 374.223V368.754H865.95V373.848C865.95 374.452 866.085 374.9 866.356 375.192C866.638 375.473 867.075 375.614 867.669 375.614C868.138 375.614 868.58 375.499 868.997 375.27C869.414 375.03 869.737 374.754 869.966 374.442V368.754H871.153V376.489H869.966ZM874.157 367.661C873.938 367.661 873.745 367.582 873.579 367.426C873.422 367.27 873.344 367.082 873.344 366.864C873.344 366.634 873.422 366.442 873.579 366.286C873.745 366.119 873.938 366.036 874.157 366.036C874.375 366.036 874.563 366.119 874.719 366.286C874.886 366.442 874.969 366.634 874.969 366.864C874.969 367.082 874.886 367.27 874.719 367.426C874.563 367.582 874.375 367.661 874.157 367.661ZM873.563 376.489V368.754H874.766V376.489H873.563ZM877.163 376.489V365.817H878.366V376.489H877.163ZM882.716 376.676C881.57 376.676 880.997 376.077 880.997 374.879V369.817H879.716V368.754H880.997V366.645H882.201V368.754H883.763V369.817H882.201V374.614C882.201 374.905 882.263 375.145 882.388 375.332C882.523 375.52 882.721 375.614 882.982 375.614C883.315 375.614 883.586 375.504 883.794 375.286L884.154 376.192C883.82 376.515 883.341 376.676 882.716 376.676Z" fill="#0EB593"/>
</svg>
