<?xml version="1.0" encoding="utf-8"?>
<!-- Generator: Adobe Illustrator 23.0.0, SVG Export Plug-In . SVG Version: 6.00 Build 0)  -->
<svg version="1.1" id="Layer_1" xmlns="http://www.w3.org/2000/svg" xmlns:xlink="http://www.w3.org/1999/xlink" x="0px" y="0px"
	 viewBox="0 0 272.9 465.7" style="enable-background:new 0 0 272.9 465.7;" xml:space="preserve">
<style type="text/css">
	.st0{fill:#FFFFFF;}
	.st1{clip-path:url(#SVGID_2_);stroke:#000000;stroke-width:1.51;}
</style>
<rect x="-0.6" y="-1.7" class="st0" width="272.7" height="468.7"/>
<g>
	<g>
		<defs>
			
				<rect id="SVGID_1_" x="69.2" y="258.6" transform="matrix(0.7071 -0.7071 0.7071 0.7071 -189.7728 193.7198)" width="139.5" height="134.7"/>
		</defs>
		<clipPath id="SVGID_2_">
			<use xlink:href="#SVGID_1_"  style="overflow:visible;"/>
		</clipPath>
		<path class="st1" d="M27,216.7h231v243.5H27V216.7z"/>
	</g>
</g>
<g>
	<path class="st0" d="M181.6,315.8c-0.2,0-0.4-0.1-0.6-0.3l-0.3-0.3c-0.2-0.2-0.2-0.4-0.2-0.6c0-0.2,0.1-0.5,0.3-0.6
		c0.2-0.2,0.4-0.3,0.6-0.3l0,0c0.3,0,0.5,0.1,0.6,0.2l0.3,0.3c0.4,0.4,0.4,0.9,0,1.3C182,315.7,181.8,315.8,181.6,315.8z"/>
	<path class="st0" d="M181.5,314.1c0.1,0,0.2,0,0.3,0.1l0.3,0.3c0.2,0.2,0.2,0.5,0,0.8c-0.1,0.1-0.3,0.2-0.4,0.2
		c-0.1,0-0.2-0.1-0.4-0.2L181,315c-0.1-0.1-0.1-0.2-0.1-0.4s0.1-0.3,0.2-0.4C181.1,314.1,181.3,314.1,181.5,314.1
		C181.4,314.1,181.4,314.1,181.5,314.1 M181.5,313.4L181.5,313.4L181.5,313.4c-0.4,0-0.7,0.2-0.9,0.4c-0.2,0.2-0.4,0.5-0.4,0.9
		c0,0.3,0.1,0.7,0.3,0.9l0.3,0.3c0.3,0.3,0.6,0.4,0.9,0.4c0.2,0,0.6-0.1,0.9-0.4c0.5-0.5,0.6-1.2,0-1.8l-0.3-0.3
		C182.1,313.5,181.8,313.4,181.5,313.4z M186.9,308.8c-0.6,0-1.3-0.1-2-0.4c-0.8-0.3-1.6-0.9-2.5-1.8l-7.3-7.3
		c-1.4-1.4-2.1-2.8-2.2-4.1c-0.1-1.4,0.5-2.8,1.8-4.1c1.2-1.2,2.5-1.8,3.8-1.8h0.3c1.4,0.1,2.8,0.8,4.2,2.2l7.3,7.3
		c0.9,0.9,1.5,1.7,1.8,2.5c0.3,0.8,0.5,1.6,0.4,2.3c0,0.7-0.3,1.4-0.6,2s-0.7,1.1-1.2,1.5s-1,0.8-1.5,1.2c-0.6,0.4-1.3,0.6-2,0.6
		C187.1,308.8,187,308.8,186.9,308.8z M178.5,291c-0.9,0-1.7,0.4-2.5,1.2c-0.9,0.9-1.3,1.8-1.2,2.6c0.1,1,0.6,2,1.7,3.1l7.3,7.3
		c1.1,1.1,2.1,1.7,3.1,1.8l0,0c1,0,1.8-0.4,2.6-1.2c0.9-0.9,1.3-1.8,1.2-2.7s-0.6-1.9-1.8-3.1l-7.3-7.3
		C180.5,291.6,179.5,291,178.5,291l-0.2-0.5L178.5,291L178.5,291L178.5,291z"/>
	<path class="st0" d="M178.5,289.6c0.1,0,0.2,0,0.3,0c1.3,0.1,2.6,0.8,4,2.1l7.2,7.3c0.9,0.9,1.4,1.7,1.8,2.4
		c0.3,0.8,0.4,1.5,0.4,2.1s-0.2,1.3-0.6,1.8c-0.3,0.5-0.7,1-1.1,1.5c-0.4,0.4-0.9,0.8-1.4,1.1c-0.5,0.3-1.2,0.5-1.8,0.6
		c-0.1,0-0.2,0-0.3,0c-0.6,0-1.2-0.1-1.8-0.4c-0.7-0.3-1.6-0.9-2.4-1.8l-7.3-7.3c-1.3-1.3-2-2.6-2.1-3.9c-0.1-1.3,0.5-2.6,1.7-3.8
		C176.1,290.1,177.3,289.6,178.5,289.6 M187,307.4c0.9,0,1.8-0.4,2.7-1.3s1.4-1.9,1.3-2.9c-0.1-1-0.7-2.1-1.9-3.3l-7.3-7.3
		c-1.2-1.2-2.3-1.8-3.3-1.9c-0.1,0-0.1,0-0.2,0c-1,0-1.9,0.4-2.8,1.3c-1,1-1.4,1.9-1.3,2.9c0.1,1.1,0.7,2.2,1.8,3.3l7.3,7.3
		c1.2,1.2,2.3,1.8,3.3,1.9C186.9,307.4,187,307.4,187,307.4 M178.5,288.9c-1.4,0-2.8,0.6-4,1.9c-1.4,1.4-2,2.8-1.9,4.4
		c0.1,1.5,0.9,3,2.4,4.4l7.3,7.3c0.9,0.9,1.8,1.6,2.6,1.9c0.7,0.3,1.4,0.4,2.1,0.4c0.9,0,1.7-0.2,2.5-0.7c0.6-0.3,1.1-0.7,1.6-1.2
		s0.9-1,1.2-1.6c0.4-0.6,0.6-1.4,0.7-2.1c0.1-0.8-0.1-1.6-0.4-2.4c-0.3-0.8-1-1.7-1.9-2.6l-7.3-7.3c-1.5-1.5-2.9-2.2-4.4-2.3
		C178.7,288.9,178.6,288.9,178.5,288.9z M187,306.7c-0.1,0-0.1,0-0.2,0c-0.9-0.1-1.9-0.6-2.9-1.7l-7.3-7.3c-1-1-1.6-2-1.6-2.9
		c-0.1-0.8,0.3-1.6,1.1-2.4c0.8-0.8,1.5-1.1,2.3-1.1h0.1c0.8,0,1.8,0.6,2.8,1.7l7.3,7.3c1.1,1.1,1.6,2,1.7,2.9
		c0,0.8-0.3,1.6-1.1,2.4C188.5,306.3,187.8,306.7,187,306.7L187,306.7z M134.8,401.8c-1.3-0.1-2.6-0.7-3.9-2.1
		c-0.2-0.2-0.2-0.4-0.2-0.6s0.1-0.5,0.3-0.7c0.2-0.2,0.4-0.3,0.6-0.3s0.4,0.1,0.6,0.2c0.7,0.7,1.3,1.1,1.8,1.3
		c0.4,0.2,0.9,0.3,1.2,0.3c0.6,0,1-0.2,1.3-0.4c0.3-0.2,0.6-0.5,0.9-0.8c0.8-0.8,1.2-1.6,1.1-2.4c-0.1-0.9-0.6-1.8-1.6-2.8l-32-32
		c-0.4-0.5-0.5-1-0.2-1.3l48.6-48.6c0.1-0.1,0.3-0.2,0.5-0.2c0.3,0,0.5,0.1,0.7,0.3l-0.1,0.4l0.2-0.2l7.7,7.7l-2.1-14
		c0-0.2,0-0.5,0.2-0.7c0.1-0.2,0.3-0.3,0.5-0.4c0.1,0,0.1,0,0.2,0c0.3,0,0.4,0,0.5,0.1c0.2,0.1,0.3,0.3,0.4,0.6l1.7,11.2l12.5,2.9
		c0.1,0,0.4,0.1,0.5,0.4c0.1,0.2,0.1,0.5,0.1,0.7c-0.1,0.2-0.2,0.3-0.2,0.4c-0.2,0.2-0.4,0.3-0.7,0.3l-11.9-2.7l0.5,3.6l4.9,4.8
		c0.2,0.2,0.3,0.4,0.3,0.6c0,0.2-0.1,0.4-0.3,0.6c-0.2,0.2-0.4,0.3-0.7,0.3c-0.2,0-0.4,0-0.6-0.3l-14.3-14.3l-47.2,47.2l31.5,31.5
		c1.2,1.2,1.9,2.5,2,3.8c0.1,1.3-0.5,2.6-1.7,3.8c-1.1,1.1-2.3,1.7-3.6,1.7C135.1,401.8,134.8,401.8,134.8,401.8z"/>
	<path class="st0" d="M161.4,305c0.1,0,0.2,0,0.3,0.1c0.1,0.1,0.2,0.2,0.2,0.3l1.7,11.4l12.7,3c0.1,0,0.2,0.1,0.3,0.2s0.1,0.3,0,0.4
		c0,0.1-0.1,0.2-0.2,0.2c-0.1,0.1-0.3,0.2-0.4,0.2h-0.1l-12.1-2.8l0.6,4.1l5,5c0.1,0.1,0.2,0.2,0.2,0.4c0,0.1-0.1,0.3-0.2,0.4
		c-0.1,0.1-0.3,0.2-0.4,0.2s-0.3-0.1-0.4-0.2l-14.5-14.5l-47.7,47.7l31.7,31.7c1.1,1.1,1.8,2.4,1.9,3.5c0.1,1.2-0.4,2.4-1.6,3.5
		c-1.1,1.1-2.2,1.6-3.3,1.6c-0.1,0-0.2,0-0.2,0c-1.2-0.1-2.4-0.7-3.6-2c-0.1-0.1-0.1-0.2-0.1-0.4c0-0.2,0.1-0.3,0.2-0.4
		c0.1-0.1,0.2-0.2,0.4-0.2c0.1,0,0.3,0,0.4,0.1c0.7,0.7,1.3,1.2,1.9,1.4c0.5,0.2,0.9,0.3,1.3,0.3c0.1,0,0.1,0,0.2,0
		c0.5,0,0.9-0.2,1.3-0.4c0.4-0.2,0.7-0.5,1-0.8c0.8-0.8,1.3-1.7,1.2-2.6c-0.1-1-0.6-2-1.7-3l-32-32l0,0l0,0
		c-0.2-0.2-0.3-0.6-0.1-0.8l48.4-48.6c0.1-0.1,0.2-0.1,0.3-0.1c0.2,0,0.3,0.1,0.5,0.2l0.1,0.1c0,0,0.1,0,0.1,0.1l8.5,8.5l-2.2-15.1
		c0-0.2,0-0.3,0.1-0.4c0.1-0.1,0.2-0.2,0.3-0.2C161.4,305,161.4,305,161.4,305 M161.5,304.3L161.5,304.3h-0.2
		c-0.4,0.1-0.6,0.3-0.8,0.5c-0.2,0.3-0.3,0.6-0.2,1l1.9,13l-7-7l-0.1-0.1l0,0l-0.1-0.1c-0.3-0.2-0.6-0.4-0.9-0.4s-0.6,0.1-0.8,0.3
		l-48.6,48.6c-0.5,0.5-0.4,1.2,0.1,1.8l0,0l0,0l0,0l0,0l0,0l32,32c0.9,0.9,1.4,1.8,1.5,2.6c0,0.7-0.3,1.4-1,2.1
		c-0.3,0.3-0.6,0.5-0.9,0.7c-0.3,0.2-0.6,0.3-0.9,0.3c-0.1,0-0.1,0-0.2,0c-0.3,0-0.7-0.1-1.1-0.2c-0.5-0.2-1-0.6-1.7-1.2
		c-0.2-0.2-0.5-0.3-0.9-0.3c-0.7,0-1.3,0.6-1.3,1.3c0,0.3,0.1,0.6,0.3,0.9c1.4,1.4,2.8,2.1,4.1,2.2c0.1,0,0.2,0,0.3,0
		c1.3,0,2.6-0.6,3.8-1.8c1.3-1.3,1.9-2.7,1.8-4.1c-0.1-1.3-0.8-2.7-2.1-4l-31.2-31.2l46.7-46.7l14,14c0.3,0.3,0.6,0.4,0.8,0.4
		c0.3,0,0.6-0.1,0.9-0.4c0.2-0.2,0.4-0.5,0.4-0.8c0-0.3-0.1-0.7-0.4-0.9l-4.8-4.8l-0.4-2.8l11.2,2.6c0.4,0.1,0.9,0,1.2-0.4
		c0.1-0.1,0.2-0.2,0.3-0.4v-0.1v-0.1c0.1-0.3,0.1-0.6-0.1-0.9c-0.2-0.4-0.5-0.6-0.8-0.6l-12.2-2.8l-1.7-11c0-0.3-0.2-0.6-0.5-0.8
		C161.9,304.3,161.7,304.3,161.5,304.3z"/>
	<path class="st0" d="M146.9,389.9c-0.6,0-1.3-0.1-2-0.4c-0.8-0.3-1.7-0.9-2.5-1.8l-7.3-7.3c-1.4-1.4-2.1-2.8-2.2-4.1
		c-0.1-1.4,0.5-2.8,1.8-4.1c1.2-1.2,2.5-1.8,3.8-1.8h0.3c1.4,0.1,2.8,0.8,4.2,2.2l7.3,7.3c0.9,0.9,1.5,1.7,1.8,2.5
		c0.3,0.8,0.5,1.6,0.4,2.3c0,0.7-0.3,1.4-0.6,2c-0.3,0.6-0.7,1.1-1.2,1.5c-0.4,0.4-0.9,0.8-1.5,1.2c-0.6,0.4-1.3,0.6-2,0.6
		C147.1,389.9,147,389.9,146.9,389.9z M138.4,372.1c-0.9,0-1.7,0.4-2.5,1.2c-0.9,0.9-1.3,1.8-1.2,2.6c0.1,1,0.6,2,1.7,3.1l7.3,7.3
		c1.1,1.1,2.1,1.7,3.1,1.8l0,0c1,0,1.8-0.4,2.6-1.2c0.9-0.9,1.3-1.7,1.2-2.7c-0.1-0.9-0.7-2-1.8-3.1l-7.3-7.3
		C140.4,372.7,139.4,372.1,138.4,372.1l-0.2-0.5C138.4,371.7,138.4,372.1,138.4,372.1z"/>
	<path class="st0" d="M138.4,370.6c0.1,0,0.2,0,0.3,0c1.3,0.1,2.6,0.8,4,2.1l7.3,7.3c0.9,0.9,1.4,1.7,1.7,2.4
		c0.3,0.8,0.4,1.5,0.4,2.1s-0.2,1.3-0.6,1.8c-0.3,0.5-0.7,1-1.1,1.5c-0.4,0.4-0.9,0.8-1.4,1.1c-0.5,0.3-1.1,0.5-1.8,0.6
		c-0.1,0-0.2,0-0.3,0c-0.6,0-1.2-0.1-1.8-0.4c-0.7-0.3-1.6-0.9-2.4-1.8l-7.3-7.3c-1.3-1.3-2-2.6-2.1-3.9c-0.1-1.3,0.5-2.6,1.7-3.8
		C136,371.2,137.2,370.6,138.4,370.6 M147,388.4c0.9,0,1.8-0.4,2.7-1.3c0.9-0.9,1.4-1.9,1.3-3c-0.1-1-0.7-2.1-1.9-3.3l-7.3-7.3
		c-1.2-1.2-2.3-1.8-3.3-1.9c-0.1,0-0.1,0-0.2,0c-1,0-1.9,0.4-2.8,1.3c-1,1-1.4,1.9-1.3,2.9c0.1,1.1,0.7,2.2,1.8,3.3l7.3,7.3
		c1.2,1.2,2.3,1.8,3.3,1.9C146.8,388.4,146.9,388.4,147,388.4 M138.4,369.9c-1.4,0-2.8,0.6-4,1.9c-1.4,1.4-2,2.8-1.9,4.3
		s0.9,3,2.4,4.4l7.3,7.3c0.9,0.9,1.8,1.6,2.6,1.9c0.7,0.3,1.4,0.4,2.1,0.4c0.1,0,0.2,0,0.3,0c0.7,0,1.5-0.3,2.1-0.7
		c0.6-0.3,1.1-0.7,1.6-1.2s0.9-1,1.2-1.6c0.4-0.6,0.6-1.4,0.7-2.1c0.1-0.8-0.1-1.6-0.4-2.4s-1-1.7-1.9-2.6l-7.3-7.3
		c-1.5-1.5-2.9-2.2-4.4-2.3C138.7,369.9,138.5,369.9,138.4,369.9z M147,387.7c-0.1,0-0.1,0-0.2,0c-0.9-0.1-1.9-0.6-2.9-1.6l-7.3-7.3
		c-1-1-1.6-2-1.6-2.9c-0.1-0.8,0.3-1.6,1.1-2.4c0.8-0.8,1.5-1.1,2.3-1.1h0.1c0.8,0.1,1.8,0.6,2.8,1.7l7.3,7.3c1.1,1.1,1.6,2,1.7,2.9
		c0,0.8-0.3,1.6-1.1,2.4C148.4,387.4,147.7,387.7,147,387.7z M158.9,379.5c-0.2,0-0.4-0.1-0.6-0.3l-14.8-14.8
		c-0.2-0.2-0.3-0.4-0.2-0.6c0-0.2,0.1-0.4,0.3-0.6c0.2-0.2,0.4-0.3,0.6-0.3l0,0c0.3,0,0.4,0.1,0.6,0.2l6.8,6.8l4.7-4.7l-6.8-6.8
		c-0.1-0.1-0.2-0.3-0.2-0.6c0-0.2,0.1-0.5,0.3-0.6c0.2-0.2,0.4-0.3,0.6-0.3l0,0c0.3,0,0.5,0.1,0.6,0.2l14.8,14.8
		c0.2,0.2,0.3,0.4,0.3,0.6s-0.1,0.5-0.3,0.7c-0.2,0.2-0.4,0.3-0.7,0.3c-0.2,0-0.4-0.1-0.6-0.3l-6.8-6.8l-4.7,4.7l6.8,6.8
		c0.4,0.4,0.4,0.9,0,1.3C159.4,379.4,159.2,379.5,158.9,379.5z"/>
	<path class="st0" d="M150.3,357.2c0.1,0,0.2,0,0.3,0.1l14.8,14.8c0.2,0.2,0.2,0.5,0,0.8c-0.1,0.1-0.3,0.2-0.4,0.2
		c-0.1,0-0.2-0.1-0.4-0.2l-7-7l-5.2,5.2l7,7c0.2,0.2,0.2,0.5,0,0.8c-0.1,0.1-0.3,0.2-0.4,0.2c-0.1,0-0.2-0.1-0.4-0.2l-14.8-14.8
		c-0.1-0.1-0.1-0.2-0.1-0.4c0-0.2,0.1-0.3,0.2-0.4c0.1-0.1,0.2-0.2,0.4-0.2l0,0c0.1,0,0.2,0,0.3,0.1l7,7l5.2-5.2l-7-7
		c-0.1-0.1-0.1-0.2-0.1-0.4c0-0.2,0.1-0.3,0.2-0.4C150,357.3,150.1,357.2,150.3,357.2L150.3,357.2 M150.3,356.5L150.3,356.5
		L150.3,356.5c-0.4,0-0.7,0.1-0.9,0.4c-0.2,0.2-0.4,0.5-0.4,0.9c0,0.3,0.1,0.7,0.3,0.9l6.5,6.5l-4.2,4.2l-6.5-6.5
		c-0.2-0.2-0.5-0.3-0.8-0.3c-0.4,0-0.7,0.2-0.9,0.4c-0.2,0.2-0.4,0.5-0.4,0.9c0,0.3,0.1,0.6,0.3,0.9l14.8,14.8
		c0.3,0.3,0.6,0.4,0.9,0.4c0.3,0,0.6-0.1,0.9-0.4c0.5-0.5,0.6-1.3,0-1.8l-6.5-6.5l4.2-4.2l6.5,6.5c0.3,0.3,0.6,0.4,0.8,0.4
		c0.3,0,0.6-0.1,0.9-0.4c0.3-0.3,0.4-0.7,0.4-0.9c0-0.2-0.1-0.5-0.4-0.9L151,357C150.9,356.6,150.6,356.5,150.3,356.5z M170.9,367.5
		c-0.1,0-0.4-0.1-0.6-0.3l-14.8-14.8c-0.3-0.3-0.3-0.7,0-1.1c0.3-0.3,0.5-0.4,0.7-0.4h0.1l0.3,0.1l17.3,6.6l-11.8-11.8
		c-0.2-0.2-0.2-0.4-0.2-0.6c0-0.2,0.1-0.5,0.3-0.6c0.2-0.2,0.4-0.3,0.6-0.3l0,0c0.3,0,0.5,0.1,0.6,0.2l14.8,14.8
		c0.3,0.3,0.3,0.7,0.1,1.1c-0.4,0.4-0.6,0.4-0.7,0.4h-0.1l-0.3-0.1l-17.3-6.6l11.7,11.7c0.2,0.2,0.3,0.5,0.3,0.6
		c0,0.2-0.1,0.4-0.3,0.6C171.4,367.4,171.1,367.5,170.9,367.5L170.9,367.5z"/>
	<path class="st0" d="M162.9,344.6c0.1,0,0.2,0,0.3,0.1l14.8,14.8c0.2,0.2,0.2,0.4,0,0.7l-0.1,0.1c-0.1,0.1-0.2,0.2-0.4,0.2
		c-0.1,0-0.1,0-0.2-0.1l-18.9-7.2l12.9,12.9c0.2,0.2,0.2,0.5,0,0.8c-0.1,0.1-0.3,0.2-0.4,0.2c-0.1,0-0.3-0.1-0.3-0.2l-14.8-14.8
		c-0.2-0.2-0.2-0.4,0-0.7c0.1-0.2,0.3-0.3,0.5-0.3c0.1,0,0.1,0,0.2,0l18.9,7.2l-12.9-12.9c-0.1-0.1-0.1-0.2-0.1-0.3
		c0-0.2,0.1-0.3,0.2-0.4C162.5,344.7,162.7,344.6,162.9,344.6C162.8,344.6,162.9,344.6,162.9,344.6 M162.9,343.9L162.9,343.9
		L162.9,343.9c-0.4,0-0.7,0.2-0.9,0.4c-0.2,0.2-0.4,0.5-0.4,0.9s0.1,0.7,0.3,0.9l10.6,10.6l-15.8-6c-0.2-0.1-0.3-0.1-0.5-0.1
		c-0.4,0-0.8,0.2-1,0.6c-0.4,0.5-0.4,1.2,0.1,1.6l14.8,14.8c0.3,0.3,0.6,0.4,0.8,0.4s0.6-0.1,0.9-0.4c0.3-0.3,0.4-0.6,0.4-0.9
		c0-0.2,0-0.6-0.4-0.9l-10.6-10.6l15.8,6c0.1,0.1,0.3,0.1,0.5,0.1s0.6-0.1,0.9-0.4l0,0l0.1-0.1c0.4-0.5,0.3-1.1-0.1-1.6l-14.8-14.8
		C163.5,344,163.2,343.9,162.9,343.9z M183.3,353.1c-1.4-0.1-2.8-0.8-4.2-2.2c-0.2-0.2-0.3-0.5-0.3-0.6c0-0.2,0.1-0.4,0.3-0.6
		c0.2-0.2,0.4-0.3,0.6-0.3l0,0c0.3,0,0.5,0.1,0.6,0.3c0.7,0.7,1.4,1.2,2,1.4c0.5,0.2,1,0.3,1.4,0.3c0.7,0,1.1-0.2,1.4-0.4
		c0.4-0.3,0.7-0.5,1-0.8c0.9-0.9,1.2-1.7,1.2-2.7c-0.1-1-0.6-2-1.6-2.9c-0.5-0.5-1-0.8-1.6-1c-0.4-0.1-0.8-0.2-1.1-0.2
		c-0.1,0-0.3,0-0.4,0c-0.5,0.1-1,0.2-1.4,0.3l-1.8,0.7c-0.3,0.2-0.8,0.3-1.4,0.5c-0.6,0.2-1.3,0.3-1.9,0.4h-0.3
		c-0.6,0-1.3-0.1-1.9-0.3c-0.8-0.2-1.5-0.7-2.2-1.4c-1.2-1.2-1.9-2.6-2.1-4c-0.2-1.6,0.4-3.1,1.6-4.3c1.2-1.2,2.5-1.8,3.9-1.8h0.3
		c1.4,0.1,2.8,0.8,4.2,2.2c0.2,0.2,0.2,0.4,0.2,0.6c0,0.2-0.1,0.5-0.3,0.7c-0.2,0.2-0.4,0.3-0.6,0.3c-0.2,0-0.5-0.1-0.6-0.2
		c-1.1-1.1-2.1-1.7-3.1-1.8l0,0c-1,0-1.8,0.4-2.7,1.2c-0.8,0.8-1.2,1.8-1.1,2.8c0.1,1.1,0.6,2.1,1.6,3c0.5,0.5,1,0.8,1.6,1
		c0.4,0.1,0.9,0.2,1.3,0.2h0.3c0.5,0,1-0.1,1.5-0.3c0.5-0.2,0.9-0.3,1.2-0.5l0.6-0.2c0.3-0.1,0.8-0.3,1.3-0.5
		c0.8-0.3,1.6-0.4,2.4-0.4c0.5,0,1.1,0.1,1.7,0.2c0.8,0.2,1.5,0.7,2.2,1.4c0.6,0.6,1.1,1.2,1.4,1.9c0.3,0.7,0.5,1.4,0.6,2
		c0.1,1.6-0.5,3-1.7,4.2c-1.2,1.2-2.5,1.8-3.8,1.8H183.3L183.3,353.1z"/>
	<path class="st0" d="M175.2,333.8c0.1,0,0.2,0,0.2,0c1.3,0.1,2.6,0.8,4,2.1c0.1,0.1,0.1,0.2,0.1,0.4c0,0.2-0.1,0.3-0.2,0.4
		c-0.1,0.1-0.3,0.2-0.4,0.2l0,0c-0.1,0-0.3,0-0.4-0.1c-1.2-1.2-2.3-1.8-3.3-1.9c-0.1,0-0.1,0-0.2,0c-0.9,0-1.8,0.5-2.7,1.3
		c-0.9,0.9-1.3,1.9-1.2,3.1c0.1,1.1,0.7,2.2,1.7,3.2c0.6,0.6,1.1,0.9,1.7,1.1c0.5,0.1,0.9,0.2,1.4,0.2c0.1,0,0.2,0,0.3,0
		c0.5,0,1-0.2,1.5-0.3c0.5-0.2,0.9-0.3,1.2-0.5l0.6-0.2c0.3-0.1,0.7-0.3,1.3-0.5c0.7-0.3,1.5-0.4,2.3-0.4c0.5,0,1,0.1,1.6,0.2
		c0.7,0.2,1.4,0.6,2.1,1.3c0.5,0.5,1,1.1,1.3,1.8c0.3,0.6,0.5,1.3,0.6,1.9c0.1,1.4-0.4,2.8-1.6,4c-1.1,1.1-2.3,1.7-3.5,1.7
		c-0.1,0-0.2,0-0.3,0c-1.3-0.1-2.6-0.8-4-2.1c-0.2-0.2-0.2-0.5,0-0.8c0.1-0.1,0.2-0.2,0.4-0.2l0,0c0.1,0,0.3,0.1,0.3,0.1
		c0.8,0.7,1.4,1.3,2.1,1.5c0.5,0.2,1,0.3,1.5,0.3c0.1,0,0.2,0,0.2,0c0.5,0,1-0.2,1.4-0.5c0.4-0.3,0.7-0.5,1.1-0.9
		c0.9-0.9,1.3-1.9,1.3-3c-0.1-1.1-0.6-2.1-1.7-3.2c-0.5-0.6-1.1-0.9-1.7-1.1c-0.4-0.1-0.8-0.2-1.2-0.2c-0.1,0-0.3,0-0.4,0
		c-0.5,0.1-1,0.2-1.5,0.4s-0.8,0.3-1.1,0.4l-0.6,0.2c-0.3,0.2-0.8,0.3-1.3,0.5c-0.5,0.2-1.2,0.3-1.8,0.4c-0.1,0-0.2,0-0.3,0
		c-0.6,0-1.2-0.1-1.8-0.3c-0.7-0.2-1.4-0.6-2.1-1.3c-1.2-1.2-1.8-2.4-2-3.8c-0.2-1.5,0.4-2.8,1.5-4
		C172.8,334.4,174,333.8,175.2,333.8 M175.2,333.1c-1.4,0-2.8,0.7-4.1,1.9c-1.3,1.4-1.9,2.9-1.7,4.6c0.2,1.5,0.9,2.9,2.2,4.2
		c0.8,0.8,1.6,1.3,2.4,1.5c0.7,0.2,1.3,0.3,2,0.3c0.1,0,0.2,0,0.3,0c0.7,0,1.4-0.2,2-0.4c0.5-0.2,0.9-0.4,1.4-0.6l0.6-0.2
		c0.3-0.1,0.7-0.3,1.1-0.4c0.4-0.2,0.8-0.3,1.3-0.3c0.1,0,0.2,0,0.4,0c0.3,0,0.7,0,1.1,0.1c0.5,0.1,0.9,0.4,1.4,0.9
		c0.9,0.9,1.4,1.8,1.5,2.7s-0.3,1.7-1.1,2.5c-0.3,0.3-0.6,0.5-1,0.8c-0.3,0.2-0.7,0.3-1.1,0.4c-0.1,0-0.1,0-0.2,0
		c-0.4,0-0.8-0.1-1.2-0.3c-0.5-0.2-1.2-0.7-1.8-1.4c-0.2-0.2-0.5-0.4-0.8-0.4c-0.4,0-0.7,0.1-0.9,0.4c-0.3,0.3-0.4,0.6-0.4,0.9
		c0,0.2,0.1,0.6,0.4,0.9c1.4,1.4,2.9,2.2,4.4,2.3c0.1,0,0.2,0,0.3,0c1.4,0,2.8-0.6,4-1.9c1.3-1.3,1.9-2.9,1.8-4.5
		c-0.1-0.8-0.3-1.5-0.6-2.2c-0.4-0.7-0.9-1.4-1.4-2c-0.8-0.8-1.6-1.3-2.4-1.5c-0.6-0.1-1.2-0.2-1.8-0.2c-0.9,0-1.7,0.2-2.5,0.5
		c-0.5,0.2-1,0.4-1.3,0.5l-0.6,0.2c-0.4,0.2-0.7,0.3-1.2,0.5c-0.4,0.2-0.9,0.2-1.4,0.3c-0.1,0-0.2,0-0.3,0c-0.4,0-0.8-0.1-1.2-0.2
		c-0.5-0.1-0.9-0.5-1.4-0.9c-0.9-0.9-1.4-1.8-1.5-2.8c-0.1-0.9,0.2-1.8,1-2.5c0.8-0.8,1.5-1.1,2.2-1.1c0.1,0,0.1,0,0.2,0
		c0.9,0.1,1.9,0.6,2.9,1.7c0.1,0.1,0.4,0.3,0.9,0.3c0.4,0,0.7-0.1,0.9-0.4c0.2-0.2,0.4-0.6,0.4-0.9c0-0.3-0.1-0.6-0.3-0.9
		c-1.5-1.5-3-2.3-4.4-2.3C175.4,333.2,175.3,333.1,175.2,333.1L175.2,333.1z M195.7,341c-0.6,0-1.3-0.1-2-0.4
		c-0.8-0.3-1.7-0.9-2.5-1.8l-7.3-7.3c-1.4-1.4-2.1-2.8-2.2-4.1c-0.1-1.4,0.5-2.8,1.8-4.1c1.2-1.2,2.5-1.8,3.8-1.8h0.3
		c1.4,0.1,2.8,0.8,4.2,2.2l7.3,7.3c0.9,0.9,1.5,1.7,1.8,2.5c0.3,0.8,0.5,1.6,0.4,2.3c0,0.7-0.3,1.4-0.6,2c-0.3,0.6-0.7,1.1-1.2,1.5
		c-0.4,0.4-1,0.8-1.5,1.2c-0.6,0.4-1.3,0.6-2,0.6C196,341,195.7,341,195.7,341z M187.2,323.2c-0.9,0-1.7,0.4-2.5,1.2
		c-0.9,0.9-1.3,1.8-1.2,2.6c0.1,1,0.6,2,1.7,3.1l7.3,7.3c1.1,1.1,2.1,1.7,3.1,1.8l0,0c1,0,1.8-0.4,2.6-1.2c0.9-0.9,1.3-1.8,1.2-2.7
		c-0.1-0.9-0.7-2-1.8-3.1l-7.3-7.3c-1.1-1.1-2.1-1.7-3.1-1.8l-0.2-0.4C187.2,322.9,187.2,323.2,187.2,323.2z"/>
	<path class="st0" d="M187.3,321.8c0.1,0,0.2,0,0.3,0c1.3,0.1,2.6,0.8,4,2.1l7.3,7.3c0.9,0.9,1.4,1.7,1.8,2.4
		c0.3,0.7,0.4,1.5,0.4,2.1s-0.2,1.3-0.6,1.8c-0.3,0.5-0.7,1-1.1,1.5c-0.4,0.4-0.9,0.8-1.4,1.1c-0.6,0.3-1.2,0.5-1.8,0.6
		c-0.1,0-0.2,0-0.3,0c-0.6,0-1.2-0.1-1.8-0.4c-0.7-0.3-1.6-0.9-2.4-1.8l-7.3-7.3c-1.3-1.3-2-2.6-2.1-3.9c-0.1-1.3,0.5-2.6,1.7-3.8
		C184.9,322.4,186.1,321.8,187.3,321.8 M195.8,339.6c0.9,0,1.8-0.4,2.7-1.3c0.9-0.9,1.4-1.9,1.3-3c-0.1-1-0.7-2.1-1.9-3.3l-7.3-7.3
		c-1.2-1.2-2.3-1.8-3.3-1.9c-0.1,0-0.1,0-0.2,0c-1,0-1.9,0.4-2.8,1.3c-1,1-1.4,1.9-1.3,2.9c0.1,1.1,0.7,2.2,1.8,3.3l7.3,7.3
		c1.2,1.2,2.3,1.8,3.3,1.9C195.7,339.6,195.7,339.6,195.8,339.6 M187.3,321.1c-1.4,0-2.8,0.6-4,1.9c-1.4,1.3-2,2.8-1.9,4.4
		c0.1,1.5,0.9,3,2.3,4.4l7.3,7.3c0.9,0.9,1.8,1.6,2.6,1.9c0.7,0.3,1.4,0.4,2.1,0.4c0.1,0,0.2,0,0.3,0c0.8-0.1,1.5-0.3,2.1-0.7
		c0.6-0.3,1.1-0.7,1.6-1.2s0.9-1,1.2-1.6c0.4-0.6,0.6-1.4,0.7-2.1c0.1-0.8-0.1-1.6-0.4-2.4c-0.4-0.8-1-1.7-1.9-2.7l-7.3-7.3
		c-1.4-1.5-2.9-2.2-4.4-2.3C187.5,321.1,187.4,321.1,187.3,321.1z M195.8,338.9c-0.1,0-0.1,0-0.2,0c-0.9-0.1-1.9-0.6-2.9-1.7
		l-7.3-7.3c-1-1-1.6-2-1.6-2.9c-0.1-0.8,0.3-1.6,1.1-2.4c0.8-0.8,1.5-1.1,2.3-1.1h0.1c0.8,0,1.8,0.6,2.8,1.7l7.3,7.3
		c1.1,1.1,1.6,2,1.7,2.9c0,0.8-0.3,1.6-1.1,2.4C197.3,338.5,196.5,338.9,195.8,338.9L195.8,338.9z M207.7,330.7
		c-0.2,0-0.4-0.1-0.6-0.3l-14.8-14.8c-0.3-0.3-0.3-0.7,0-1.1c0.3-0.3,0.5-0.4,0.7-0.4h0.1l0.3,0.1l17.3,6.6L198.9,309
		c-0.2-0.2-0.2-0.4-0.2-0.6c0-0.2,0.1-0.5,0.3-0.6c0.2-0.2,0.4-0.3,0.6-0.3l0,0c0.3,0,0.5,0.1,0.6,0.2l14.8,14.8
		c0.3,0.3,0.4,0.7,0.1,1.1c-0.3,0.3-0.5,0.4-0.7,0.4h-0.1l-0.3-0.1l-17.3-6.6l11.7,11.7c0.2,0.2,0.3,0.4,0.3,0.6
		c0,0.2-0.1,0.4-0.3,0.7C208.2,330.6,207.9,330.7,207.7,330.7z"/>
	<path class="st0" d="M199.7,307.8c0.1,0,0.2,0,0.3,0.1l14.8,14.8c0.2,0.2,0.2,0.4,0,0.7l-0.1,0.1c-0.1,0.1-0.2,0.2-0.4,0.2
		c-0.1,0-0.1,0-0.2-0.1l-18.9-7.2l12.9,12.9c0.2,0.2,0.2,0.5,0,0.8c-0.1,0.1-0.3,0.2-0.4,0.2c-0.1,0-0.2-0.1-0.4-0.2l-14.8-14.8
		c-0.2-0.2-0.2-0.4,0-0.7c0.1-0.2,0.3-0.3,0.5-0.3c0.1,0,0.1,0,0.2,0l18.9,7.2l-12.9-12.9c-0.1-0.1-0.1-0.2-0.1-0.4
		c0-0.2,0.1-0.3,0.2-0.4C199.3,307.9,199.5,307.8,199.7,307.8C199.6,307.8,199.7,307.8,199.7,307.8 M199.7,307.1L199.7,307.1
		c-0.4,0-0.7,0.2-0.9,0.4s-0.4,0.5-0.4,0.9c0,0.3,0.1,0.7,0.3,0.9l10.6,10.6l-15.8-6c-0.2-0.1-0.3-0.1-0.5-0.1c-0.4,0-0.8,0.2-1,0.5
		c-0.4,0.5-0.4,1.1,0.1,1.6l14.8,14.8c0.3,0.3,0.6,0.4,0.8,0.4c0.3,0,0.6-0.1,0.9-0.4c0.3-0.3,0.4-0.6,0.4-0.9
		c0-0.2-0.1-0.5-0.4-0.8L198,318.4l15.8,6c0.1,0.1,0.3,0.1,0.5,0.1s0.5-0.1,0.9-0.4l0,0l0.1-0.1h0.1v-0.1c0.4-0.5,0.3-1.2-0.1-1.6
		l-14.8-14.8C200.3,307.2,200,307.1,199.7,307.1z"/>
</g>
</svg>
